<svg version="1.2" xmlns="http://www.w3.org/2000/svg" viewBox="0 0 500 500" width="500" height="500"><style>.a{fill:#e0e0e0}.b{fill:#f0f0f0}.c{fill:#fafafa}.d{fill:#e6e6e6}.e{fill:#f5f5f5}.f{fill:#407bff}.g{fill:#fff}.h{opacity:.4}.i{opacity:.5;fill:#fff}.j{opacity:.7;fill:#fff}.k{opacity:.3;fill:#fff}.l{fill:#e4897b}.m{opacity:.4;fill:#fafafa}.n{opacity:.3}.o{fill:#263238}.p{fill:#de5753}.q{opacity:.1}.r{fill:#203048}.s{fill:#ce6f64}.t{fill:#161f33}.u{opacity:.2}</style><path class="a" d="m0 382.4h500v0.2h-500z"/><path class="a" d="m344.9 391.6h34.4v0.3h-34.4z"/><path class="a" d="m400.4 390.9h19.4v0.3h-19.4z"/><path class="a" d="m221.7 391.5h25.6v0.2h-25.6z"/><path class="a" d="m248.3 395.1h17.6v0.2h-17.6z"/><path class="a" d="m91.7 389h53v0.2h-53z"/><path class="a" d="m283.3 79.3h150.7v129.5h-150.7z"/><path class="b" d="m286.7 79.3h150.7v129.5h-150.7z"/><path class="c" d="m431.4 85.3v117.4h-138.7v-117.4z"/><path class="a" d="m387 85.3v117.4h-9v-117.4z"/><path class="a" d="m339.4 85.3v117.4h-9.1v-117.4z"/><path class="b" d="m390.2 80.8v125.8h-9v-125.8z"/><path class="b" d="m342.6 80.8v125.8h-9.1v-125.8z"/><path class="a" d="m431.4 85.3v117.4h-2.6v-117.4z"/><path class="a" d="m177.3 181.6c0 0-18.3-31.6 7.1-56.8 0 0 6.7 4.3 6.6 10.2-0.1 5.8-7.1 7.2-5.6 12.1 1.5 4.9 8.1 9.6 3.8 13.6-4.4 4.1 0.7 7.6 0.4 12.5-0.3 5-12.3 8.4-12.3 8.4z"/><path class="d" d="m180.2 186.8c0 0 7.5-35.8-24.6-51.7 0 0-5 6.2-3 11.7 1.9 5.5 9 4.7 9.1 9.8 0.1 5-4.7 11.7 0.7 14.1 5.4 2.4 1.8 7.4 3.6 12 1.8 4.6 14.2 4.1 14.2 4.1z"/><path class="b" d="m163.9 177.7c0 0 0.3 30.9 12.7 30.9 12.3 0 12.6-30.9 12.6-30.9z"/><path class="d" d="m89.7 196.9c0 0 0.7 11.7 27.1 11.7 26.3 0 27-11.7 27-11.7z"/><path class="b" d="m367.7 296.3h-13.9c-1.8 0-3.2-1.4-3.2-3.1v-23.1c0-1.7 1.4-3.1 3.2-3.1h13.9c1.7 0 3.1 1.4 3.1 3.1v23.1c0 1.7-1.4 3.1-3.1 3.1z"/><path class="d" d="m404.6 296.3h-9.4c-1.1 0-2.1-0.9-2.1-2.1v-15.5c0-1.2 1-2.1 2.1-2.1h9.4c1.2 0 2.1 0.9 2.1 2.1v15.5c0 1.2-0.9 2.1-2.1 2.1z"/><path class="b" d="m406 276.9h-12.2c-0.3 0-0.7-0.3-0.7-0.7v-0.8c0-0.4 0.4-0.7 0.7-0.7h12.2c0.4 0 0.7 0.3 0.7 0.7v0.8c0 0.4-0.3 0.7-0.7 0.7z"/><path class="d" d="m318.4 280c0 0 0.5 16.3 19.6 16.3 19.1 0 19.6-16.3 19.6-16.3z"/><path class="a" d="m299.8 258.5h-28.9v-5.7h28.9z"/><path class="b" d="m299.8 252.8h143.7v5.7h-143.7z"/><path class="a" d="m299.8 302h-28.9v-5.7h28.9z"/><path class="b" d="m299.8 296.3h143.7v5.7h-143.7z"/><path class="a" d="m276 258.5h5.4v123.9h-5.4z"/><path class="b" d="m299.8 258.5h5.4v123.9h-5.4z"/><path class="a" d="m419.7 258.5h5.3v123.9h-5.3z"/><path class="b" d="m438.1 258.5h5.4v123.9h-5.4z"/><path class="d" d="m62.4 215.8h27.3v159.1h-27.3z"/><path class="d" d="m67.6 374.9h134.7v7.5h-134.7z"/><path class="b" d="m207.6 374.9h-117.9v-159.1h117.9z"/><path class="d" d="m196.8 314.8h-96.4v-38.9h96.4z"/><path class="d" d="m196.8 360.7h-96.4v-38.8h96.4z"/><path class="b" d="m159.5 280.2h-21.7c-1.5 0-2.7-1.2-2.7-2.7 0-1.4 1.2-2.6 2.7-2.6h21.7c1.4 0 2.6 1.2 2.6 2.6 0 1.5-1.2 2.7-2.6 2.7z"/><path class="d" d="m196.8 268.8h-96.4v-38.8h96.4z"/><path class="b" d="m159.5 234.2h-21.7c-1.5 0-2.7-1.2-2.7-2.6 0-1.5 1.2-2.7 2.7-2.7h21.7c1.4 0 2.6 1.2 2.6 2.7 0 1.4-1.2 2.6-2.6 2.6z"/><path class="b" d="m159.5 326.1h-21.7c-1.5 0-2.7-1.2-2.7-2.6 0-1.5 1.2-2.7 2.7-2.7h21.7c1.4 0 2.6 1.2 2.6 2.7 0 1.4-1.2 2.6-2.6 2.6z"/><path class="d" d="m89.7 208.6h121.5v7.2h-121.5z"/><path class="a" d="m89.7 215.8h-31.1v-7.2h31.1z"/><path class="d" d="m75.9 85.3h44.2v48.6h-44.2z"/><path class="b" d="m79.3 85.3h45.6v48.6h-45.6z"/><path class="c" d="m121.1 89.2v40.9h-38v-40.9z"/><path class="b" d="m111.9 99.1v21h-19.6v-21z"/><path class="d" d="m133.2 71h33.5v36h-33.5z"/><path class="b" d="m136.4 71h33.9v36h-33.9z"/><path class="c" d="m167.5 73.9v30.3h-28.2v-30.3z"/><path class="b" d="m153.4 81.4l-7.7 13.3h15.4z"/><path class="e" d="m250 427.6c-107.2 0-193.9-5.1-193.9-11.4 0-6.2 86.7-11.3 193.9-11.3 107.2 0 193.9 5.1 193.9 11.3 0 6.3-86.7 11.4-193.9 11.4z"/><path class="f" d="m419.8 191.2h-98.1c-5.2 0-9.4-4.2-9.4-9.3v-26.7c0-5.2 4.2-9.4 9.4-9.4h98.1c5.2 0 9.4 4.2 9.4 9.4v26.7c0 5.1-4.2 9.3-9.4 9.3z"/><path class="f" d="m400.3 158.6h-76.6c-0.9 0-1.6-0.8-1.6-1.7v-1.8c0-0.9 0.7-1.6 1.6-1.6h76.6c0.9 0 1.7 0.7 1.7 1.6v1.8c0 0.9-0.8 1.7-1.7 1.7z"/><path class="f" d="m376.1 170.8h-52.4c-0.9 0-1.6-0.7-1.6-1.6v-1.8c0-0.9 0.7-1.7 1.6-1.7h52.4c0.9 0 1.6 0.8 1.6 1.7v1.8c0 0.9-0.7 1.6-1.6 1.6z"/><path class="f" d="m362 183h-38.3c-0.9 0-1.6-0.7-1.6-1.6v-1.8c0-0.9 0.7-1.6 1.6-1.6h38.3c0.9 0 1.7 0.7 1.7 1.6v1.8c0 0.9-0.8 1.6-1.7 1.6z"/><path class="f" d="m409.5 183h-38.3c-0.9 0-1.6-0.7-1.6-1.6v-1.8c0-0.9 0.7-1.6 1.6-1.6h38.3c0.9 0 1.7 0.7 1.7 1.6v1.8c0 0.9-0.8 1.6-1.7 1.6z"/><g style="opacity:.5"><path class="g" d="m400.3 158.6h-76.6c-0.9 0-1.6-0.8-1.6-1.7v-1.8c0-0.9 0.7-1.6 1.6-1.6h76.6c0.9 0 1.7 0.7 1.7 1.6v1.8c0 0.9-0.8 1.7-1.7 1.7z"/><path class="g" d="m376.1 170.8h-52.4c-0.9 0-1.6-0.7-1.6-1.6v-1.8c0-0.9 0.7-1.7 1.6-1.7h52.4c0.9 0 1.6 0.8 1.6 1.7v1.8c0 0.9-0.7 1.6-1.6 1.6z"/><path class="g" d="m362 183h-38.3c-0.9 0-1.6-0.7-1.6-1.6v-1.8c0-0.9 0.7-1.6 1.6-1.6h38.3c0.9 0 1.7 0.7 1.7 1.6v1.8c0 0.9-0.8 1.6-1.7 1.6z"/><path class="g" d="m409.5 183h-38.3c-0.9 0-1.6-0.7-1.6-1.6v-1.8c0-0.9 0.7-1.6 1.6-1.6h38.3c0.9 0 1.7 0.7 1.7 1.6v1.8c0 0.9-0.8 1.6-1.7 1.6z"/></g><path class="f" d="m341.2 201.8h-111.3c-7.6 0-13.8-6.2-13.8-13.7v-39.1c0-7.6 6.2-13.8 13.8-13.8h111.3c7.6 0 13.8 6.2 13.8 13.8v39.1c0 7.5-6.2 13.7-13.8 13.7z"/><path class="f" d="m345.2 153.9h-112.4c-1.3 0-2.4-1.1-2.4-2.4v-2.6c0-1.4 1.1-2.4 2.4-2.4h112.4c1.3 0 2.4 1 2.4 2.4v2.6c0 1.3-1.1 2.4-2.4 2.4z"/><path class="f" d="m309.6 171.9h-76.8c-1.3 0-2.4-1.1-2.4-2.4v-2.7c0-1.3 1.1-2.4 2.4-2.4h76.8c1.3 0 2.4 1.1 2.4 2.4v2.7c0 1.3-1.1 2.4-2.4 2.4z"/><path class="f" d="m289 189.8h-56.2c-1.3 0-2.4-1.1-2.4-2.4v-2.6c0-1.4 1.1-2.4 2.4-2.4h56.2c1.3 0 2.4 1 2.4 2.4v2.6c0 1.3-1.1 2.4-2.4 2.4z"/><path class="f" d="m349.3 189.8h-46.9c-1.3 0-2.4-1.1-2.4-2.4v-2.6c0-1.4 1.1-2.4 2.4-2.4h46.9c1.3 0 2.4 1 2.4 2.4v2.6c0 1.3-1.1 2.4-2.4 2.4z"/><g style="opacity:.5"><path class="g" d="m345.2 153.9h-112.4c-1.3 0-2.4-1.1-2.4-2.4v-2.6c0-1.4 1.1-2.4 2.4-2.4h112.4c1.3 0 2.4 1 2.4 2.4v2.6c0 1.3-1.1 2.4-2.4 2.4z"/><path class="g" d="m309.6 171.9h-76.8c-1.3 0-2.4-1.1-2.4-2.4v-2.7c0-1.3 1.1-2.4 2.4-2.4h76.8c1.3 0 2.4 1.1 2.4 2.4v2.7c0 1.3-1.1 2.4-2.4 2.4z"/><path class="g" d="m289 189.8h-56.2c-1.3 0-2.4-1.1-2.4-2.4v-2.6c0-1.4 1.1-2.4 2.4-2.4h56.2c1.3 0 2.4 1 2.4 2.4v2.6c0 1.3-1.1 2.4-2.4 2.4z"/><path class="g" d="m349.3 189.8h-46.9c-1.3 0-2.4-1.1-2.4-2.4v-2.6c0-1.4 1.1-2.4 2.4-2.4h46.9c1.3 0 2.4 1 2.4 2.4v2.6c0 1.3-1.1 2.4-2.4 2.4z"/></g><path class="f" d="m272 307.1h-53.6c-3.6 0-6.5-2.9-6.5-6.4v-80.4c0-3.5 2.9-6.4 6.5-6.4h53.6c3.5 0 6.4 2.9 6.4 6.4v80.4c0 3.5-2.9 6.4-6.4 6.4z"/><path class="h" d="m272 307.1h-53.6c-3.6 0-6.5-2.9-6.5-6.4v-80.4c0-3.5 2.9-6.4 6.5-6.4h53.6c3.5 0 6.4 2.9 6.4 6.4v80.4c0 3.5-2.9 6.4-6.4 6.4z"/><path class="c" d="m269.5 227.7h-48.7c-0.6 0-1.2-0.5-1.2-1.1v-1.8c0-0.7 0.6-1.2 1.2-1.2h48.7c0.7 0 1.2 0.5 1.2 1.2v1.8c0 0.6-0.5 1.1-1.2 1.1z"/><path class="c" d="m254 237.7h-33.2c-0.6 0-1.2-0.5-1.2-1.2v-1.8c0-0.6 0.6-1.1 1.2-1.1h33.2c0.7 0 1.2 0.5 1.2 1.1v1.8c0 0.7-0.5 1.2-1.2 1.2z"/><path class="c" d="m269.5 247.6h-48.7c-0.6 0-1.2-0.5-1.2-1.2v-1.7c0-0.7 0.6-1.2 1.2-1.2h48.7c0.7 0 1.2 0.5 1.2 1.2v1.7c0 0.7-0.5 1.2-1.2 1.2z"/><path class="c" d="m238.9 257.6h-18.1c-0.6 0-1.2-0.6-1.2-1.2v-1.8c0-0.6 0.6-1.1 1.2-1.1h18.1c0.7 0 1.2 0.5 1.2 1.1v1.8c0 0.6-0.5 1.2-1.2 1.2z"/><path class="c" d="m264.2 257.6h-18c-0.7 0-1.2-0.6-1.2-1.2v-1.8c0-0.6 0.5-1.1 1.2-1.1h18c0.7 0 1.2 0.5 1.2 1.1v1.8c0 0.6-0.5 1.2-1.2 1.2z"/><path class="c" d="m269.5 267.5h-48.7c-0.6 0-1.2-0.5-1.2-1.2v-1.7c0-0.7 0.6-1.2 1.2-1.2h48.7c0.7 0 1.2 0.5 1.2 1.2v1.7c0 0.7-0.5 1.2-1.2 1.2z"/><path class="c" d="m269.5 277.5h-48.7c-0.6 0-1.2-0.6-1.2-1.2v-1.8c0-0.6 0.6-1.2 1.2-1.2h48.7c0.7 0 1.2 0.6 1.2 1.2v1.8c0 0.6-0.5 1.2-1.2 1.2z"/><path class="c" d="m260.9 287.4h-40.1c-0.6 0-1.2-0.5-1.2-1.2v-1.7c0-0.7 0.6-1.2 1.2-1.2h40.1c0.6 0 1.2 0.5 1.2 1.2v1.7c0 0.7-0.6 1.2-1.2 1.2z"/><path class="c" d="m239.5 297.4h-18.7c-0.6 0-1.2-0.6-1.2-1.2v-1.8c0-0.6 0.6-1.2 1.2-1.2h18.7c0.7 0 1.2 0.6 1.2 1.2v1.8c0 0.6-0.5 1.2-1.2 1.2z"/><path class="f" d="m286.5 213.3h-74.4l32.9 26.2 50.4 19v-36.3c0-4.9-4-8.9-8.9-8.9z"/><path class="h" d="m286.5 213.3h-74.4l32.9 26.2 50.4 19v-36.3c0-4.9-4-8.9-8.9-8.9z"/><path class="c" d="m283.2 232.5h-54.4c-0.8 0-1.5-0.6-1.5-1.4v-2.8c0-0.8 0.7-1.5 1.5-1.5h54.4c0.9 0 1.5 0.7 1.5 1.5v2.8c0 0.8-0.6 1.4-1.5 1.4z"/><path class="f" d="m309.8 284.2v-52.3c0-4 3.2-7.3 7.2-7.3h90.9c4 0 7.2 3.3 7.2 7.3v52.3c0 4-3.2 7.2-7.2 7.2h-90.9c-4 0-7.2-3.2-7.2-7.2z"/><path class="f" d="m326.4 267.6v-52.3c0-4 3.2-7.3 7.2-7.3h90.9c4 0 7.2 3.3 7.2 7.3v52.3c0 4-3.2 7.2-7.2 7.2h-90.9c-4 0-7.2-3.2-7.2-7.2z"/><path class="i" d="m326.4 267.6v-52.3c0-4 3.2-7.3 7.2-7.3h90.9c4 0 7.2 3.3 7.2 7.3v52.3c0 4-3.2 7.2-7.2 7.2h-90.9c-4 0-7.2-3.2-7.2-7.2z"/><path class="f" d="m386.4 249.7v-32.2c0-1.8 1.4-3.3 3.2-3.3h29.7c1.8 0 3.2 1.5 3.2 3.3v32.2c0 1.7-1.4 3.2-3.2 3.2h-29.7c-1.8 0-3.2-1.5-3.2-3.2z"/><path class="j" d="m386.4 249.7v-32.2c0-1.8 1.4-3.3 3.2-3.3h29.7c1.8 0 3.2 1.5 3.2 3.3v32.2c0 1.7-1.4 3.2-3.2 3.2h-29.7c-1.8 0-3.2-1.5-3.2-3.2z"/><path class="f" d="m353 265.2v-24.6c0-1.4 1.1-2.5 2.5-2.5h22.7c1.4 0 2.5 1.1 2.5 2.5v24.6c0 1.4-1.1 2.5-2.5 2.5h-22.7c-1.4 0-2.5-1.1-2.5-2.5z"/><path class="k" d="m353 265.2v-24.6c0-1.4 1.1-2.5 2.5-2.5h22.7c1.4 0 2.5 1.1 2.5 2.5v24.6c0 1.4-1.1 2.5-2.5 2.5h-22.7c-1.4 0-2.5-1.1-2.5-2.5z"/><path class="f" d="m108 108.8v-13.4c0-4 3.3-7.3 7.3-7.3h244.2c4 0 7.4 3.3 7.4 7.3v13.4c0 4-3.4 7.3-7.4 7.3h-244.2c-4 0-7.3-3.3-7.3-7.3z"/><path class="i" d="m108 108.8v-13.4c0-4 3.3-7.3 7.3-7.3h244.2c4 0 7.4 3.3 7.4 7.3v13.4c0 4-3.4 7.3-7.4 7.3h-244.2c-4 0-7.3-3.3-7.3-7.3z"/><path class="f" d="m320.7 111.2v9.6h-70.3v-9.6z"/><path class="i" d="m320.7 111.2v9.6h-70.3v-9.6z"/><path class="f" d="m133.1 67.3v-13.4c0-4 3.4-7.3 7.4-7.3h244.2c4 0 7.3 3.3 7.3 7.3v13.4c0 4-3.3 7.3-7.3 7.3h-244.2c-4 0-7.4-3.3-7.4-7.3z"/><path class="l" d="m130.4 194.3c-0.9 1.9-1.9 4.1-2.7 6.2-0.9 2.2-1.8 4.3-2.5 6.5-1.6 4.3-3 8.6-3.8 12.9l-0.3 1.6-0.1 0.6c-0.1 0.2-0.1 0.4-0.1 0.6 0 0.8 0 1.9 0.1 2.9 0.2 2.1 0.5 4.4 0.9 6.6 0.9 4.6 2 9.2 3 13.8l-5.1 2.1c-2.4-4.4-4.4-8.9-6.1-13.6-0.8-2.4-1.6-4.9-2.1-7.5-0.3-1.3-0.5-2.7-0.6-4.3 0-0.4 0-0.7 0-1.2 0-0.4 0-0.9 0.1-1.2l0.2-1.9q0.4-4 1.3-7.7c0.6-2.5 1.3-4.9 2.1-7.3q1.1-3.6 2.6-7.1 0.7-1.7 1.4-3.5c0.5-1.1 1-2.2 1.7-3.4z"/><path class="l" d="m124.7 244.7l3.9 3.8-8.5 4c0 0-2.1-3.6-0.6-6.9z"/><path class="l" d="m131.8 254.2l-7.2 2.9-4.5-4.6 8.5-4z"/><path class="m" d="m277.4 250.1c-39.5-4.4-68-40.1-63.6-79.6 4.4-39.5 40.1-68 79.6-63.6 39.5 4.5 68 40.1 63.6 79.6-4.4 39.5-40.1 68-79.6 63.6z"/><path class="m" d="m329.8 121.8l-109.5 87.5q-0.7-1.5-1.3-3c-2.8-6.5-4.5-13.3-5.2-20.5l94.5-75.6c7.9 2.7 15.1 6.6 21.5 11.6z"/><path class="m" d="m355.1 160.1l-103 82.3c-9.9-5.2-18.3-12.5-24.8-21.3l112.5-89.8c7.1 8.2 12.4 18.1 15.3 28.8z"/><path class="f" d="m204.4 151l-1-0.3c1.7-4.9 3.8-9.6 6.2-14l0.9 0.4c-2.4 4.4-4.5 9.1-6.1 13.9zm12.1-23.3l-0.8-0.6c8.1-11 19-20.1 31.4-26.2l0.4 0.9c-12.2 6-23 15-31 25.9zm109.6-24.5c-3.2-1.8-6.6-3.4-10.1-4.7l0.4-0.9c3.5 1.3 6.9 2.9 10.2 4.7z"/><path class="n" d="m204.4 151l-1-0.3c1.7-4.9 3.8-9.6 6.2-14l0.9 0.4c-2.4 4.4-4.5 9.1-6.1 13.9zm12.1-23.3l-0.8-0.6c8.1-11 19-20.1 31.4-26.2l0.4 0.9c-12.2 6-23 15-31 25.9zm109.6-24.5c-3.2-1.8-6.6-3.4-10.1-4.7l0.4-0.9c3.5 1.3 6.9 2.9 10.2 4.7z"/><path fill-rule="evenodd" class="f" d="m322.2 253c-38.3 18.8-84 5.6-106.5-29.4-6 3.8-12 7.5-18 11.2q-13.1 7.8-26.5 15.2c-8.9 4.8-17.8 9.6-26.8 14.2-4.5 2.3-9.1 4.6-13.6 6.8-2.3 1.2-4.6 2.1-7.3 2.4q-2 0.3-4.3 0c-1.5-0.2-3-0.5-4.8-1.2-5.9-2.5-8.9-8.9-7.4-14.9 0.5-1.9 1.2-3.3 2-4.6q1.2-1.9 2.6-3.4c1.8-1.9 4-3.3 6.3-4.3 4.6-2.2 9.1-4.5 13.7-6.6 9.1-4.4 18.4-8.6 27.7-12.7q13.9-6.2 28.1-11.8c6.5-2.6 13.1-5.1 19.8-7.4-14.1-39.2 3.2-83.6 41.4-102.5 41.2-20.3 91-3.4 111.3 37.7 20.3 41.2 3.4 91-37.7 111.3zm22-103.5c-16.1-32.5-55.3-45.8-87.8-29.8-32.5 16.1-45.8 55.4-29.8 87.8 16.1 32.5 55.4 45.8 87.8 29.8 32.5-16.1 45.8-55.4 29.8-87.8z"/><path fill-rule="evenodd" class="n" d="m322.2 253c-38.3 18.8-84 5.6-106.5-29.4-6 3.8-12 7.5-18 11.2q-13.1 7.8-26.5 15.2c-8.9 4.8-17.8 9.6-26.8 14.2-4.5 2.3-9.1 4.6-13.6 6.8-2.3 1.2-4.6 2.1-7.3 2.4q-2 0.3-4.3 0c-1.5-0.2-3-0.5-4.8-1.2-5.9-2.5-8.9-8.9-7.4-14.9 0.5-1.9 1.2-3.3 2-4.6q1.2-1.9 2.6-3.4c1.8-1.9 4-3.3 6.3-4.3 4.6-2.2 9.1-4.5 13.7-6.6 9.1-4.4 18.4-8.6 27.7-12.7q13.9-6.2 28.1-11.8c6.5-2.6 13.1-5.1 19.8-7.4-14.1-39.2 3.2-83.6 41.4-102.5 41.2-20.3 91-3.4 111.3 37.7 20.3 41.2 3.4 91-37.7 111.3zm22-103.5c-16.1-32.5-55.3-45.8-87.8-29.8-32.5 16.1-45.8 55.4-29.8 87.8 16.1 32.5 55.4 45.8 87.8 29.8 32.5-16.1 45.8-55.4 29.8-87.8z"/><path class="o" d="m158 158.6c0 0.5 0.3 1 0.7 1 0.4 0 0.7-0.5 0.7-1 0-0.6-0.3-1.1-0.7-1.1-0.4 0-0.7 0.5-0.7 1.1z"/><path class="p" d="m158.3 159.6c0 0 1.3 3.4 2.8 5.1-1 1-2.8 0.5-2.8 0.5z"/><path class="o" d="m155.9 155.3q-0.1 0-0.3-0.2c-0.1-0.1 0-0.4 0.1-0.5 1.6-1.1 3.1-0.5 3.2-0.5 0.1 0.1 0.2 0.3 0.2 0.4-0.1 0.2-0.3 0.3-0.5 0.2-0.1 0-1.2-0.4-2.5 0.5q-0.1 0.1-0.2 0.1z"/><path class="l" d="m137.8 163c1 5.4 2.1 15.2-1.7 18.8 0 0 1.5 5.5 11.5 5.5 11 0 5.2-5.5 5.2-5.5-5.9-1.4-5.8-5.9-4.8-10z"/><path class="f" d="m131.7 184.6c1.1-1.8-0.9-6.3-0.9-6.3 0 0 17.7-4.4 25 2.4 1.5 1.4-0.2 3.5-0.2 3.5z"/><path class="q" d="m131.7 184.6c1.1-1.8-0.9-6.3-0.9-6.3 0 0 17.7-4.4 25 2.4 1.5 1.4-0.2 3.5-0.2 3.5z"/><path fill-rule="evenodd" class="f" d="m102.4 388.7c-0.9 0-2.4-1.6-2.9-2.2q0-0.1 0-0.1 0.1-0.1 0.2-0.1c0.1 0 2.5 0.2 3.2 1.1q0.2 0.3 0.2 0.6c-0.1 0.5-0.3 0.6-0.5 0.7q-0.1 0-0.2 0zm-2.3-2c0.7 0.8 1.9 1.7 2.4 1.6 0 0 0.2 0 0.2-0.3q0.1-0.3-0.1-0.4c-0.4-0.6-1.7-0.8-2.5-0.9z"/><path fill-rule="evenodd" class="f" d="m100.2 386.6q-0.3 0-0.6 0-0.1 0-0.1-0.1 0-0.1 0.1-0.2c0-0.1 1.5-1.6 2.6-1.6q0 0 0 0 0.4 0 0.7 0.3c0.3 0.3 0.2 0.6 0.2 0.7-0.4 0.6-1.9 0.9-2.9 0.9zm-0.1-0.3c0.9 0 2.4-0.3 2.6-0.7 0.1-0.1 0.1-0.2 0-0.3q-0.2-0.2-0.5-0.2c-0.7 0-1.6 0.7-2.1 1.2z"/><path fill-rule="evenodd" class="f" d="m168.4 411.4c-0.9 0-1.8-0.1-2.3-0.2q-0.1-0.1-0.1-0.2 0-0.1 0.1-0.2c0.1 0 2.7-1.5 3.9-1.2q0.4 0.2 0.5 0.5c0.2 0.3 0.2 0.6 0 0.7-0.3 0.4-1.2 0.6-2.1 0.6zm-1.7-0.5c1.4 0.2 3.2 0.2 3.6-0.3 0 0 0.1-0.2-0.1-0.4q-0.1-0.2-0.3-0.2c-0.8-0.2-2.3 0.4-3.2 0.9z"/><path fill-rule="evenodd" class="f" d="m166.2 411.2q-0.1 0-0.1-0.1-0.1 0-0.1-0.1c0-0.1 0.2-2.1 1.1-2.9q0.5-0.3 1-0.3c0.5 0.1 0.6 0.3 0.6 0.5 0.2 0.9-1.6 2.5-2.5 2.9q0 0 0 0zm1.8-3q-0.4 0-0.6 0.2c-0.7 0.5-0.9 1.7-1 2.3 0.9-0.6 2.1-1.8 2-2.3 0-0.1 0-0.2-0.3-0.2q-0.1 0-0.1 0z"/><path class="l" d="m158.1 411h7.3l0.8-17h-7.4z"/><path class="l" d="m92.6 381.8l6.2 4 13.5-11.4-6.1-4.1z"/><path class="o" d="m99.8 385.4l-6.4-5.2c-0.2-0.2-0.6-0.2-0.8 0l-5.3 4.1c-0.5 0.4-0.5 1.3 0.1 1.7 2.2 1.8 3.4 2.6 6.2 4.9 1.7 1.4 6 5.7 8.4 7.6 2.3 2 4.6-0.1 3.8-1.1-3.6-4.6-5-8.5-5.4-10.9 0-0.4-0.3-0.8-0.6-1.1z"/><path class="o" d="m165.4 410.1h-8c-0.3 0-0.6 0.3-0.7 0.5l-1.4 6.6c-0.2 0.7 0.4 1.3 1 1.3 2.9-0.1 7.1-0.2 10.8-0.2 4.2 0 7.9 0.2 12.9 0.2 3 0 3.8-3.1 2.6-3.3-5.8-1.3-10.5-1.4-15.4-4.5-0.6-0.3-1.2-0.6-1.8-0.6z"/><path class="o" d="m121.7 184c-6.4 3.1-10 23.1-10 23.1l15.6 6.2c0 0 3.5-8.3 5.5-17.1 2.1-9.3-4.6-15.3-11.1-12.2z"/><path class="r" d="m129.9 195.3c-3.8 3.9-5.6 11.6-6.4 16.5l3.8 1.5c0 0 3.4-8 5.4-16.6-0.4-2.1-1.2-3-2.8-1.4z"/><path class="o" d="m164.1 183.9c0 0 7.9 8.8 0.5 63.5-11.9 0-33.6 0-39.3 0-0.3-6.1 3.5-35.5-2.3-63.9 0 0 6.7-1.4 13.1-1.7 5.1-0.2 12.3-0.4 16.7 0 5.9 0.6 11.3 2.1 11.3 2.1z"/><path class="r" d="m167.7 205.1l-6.6-11.4c-1.3 6.2-1.8 10.1-1.5 16.2 0.1 4 3.7 18.5 6.9 20.6 1.1-10.7 1.3-19 1.2-25.4z"/><path class="l" d="m168.6 191.7c1 4.8 2.1 9.8 3.1 14.7 1.1 4.9 2.2 9.8 3.5 14.5 0.3 1.2 0.6 2.4 1 3.5l0.3 0.8 0.1 0.5c0 0 0-0.1 0-0.1-0.1-0.1-0.2-0.1-0.1 0 0 0.2 0.7 0.7 1.5 1 0.8 0.3 1.8 0.6 2.9 0.8 4.3 0.8 9.4 0.9 14.3 0.9l0.9 5.4c-1.3 0.5-2.6 0.8-3.9 1.1q-1.9 0.5-3.9 0.8c-2.7 0.4-5.4 0.6-8.4 0.5-1.4 0-2.9-0.2-4.6-0.6-1.6-0.4-3.4-1-5.2-2.4-0.9-0.8-1.8-1.8-2.5-3-0.2-0.3-0.3-0.6-0.4-0.9l-0.2-0.5-0.4-0.9c-0.5-1.3-0.9-2.6-1.4-3.8-1.7-5-3.1-10.1-4.3-15.1-1.2-5.1-2.3-10.1-3.2-15.2z"/><path class="o" d="m154.3 189.2c-2 6.7 6.3 26.7 6.3 26.7l16.8-4.2c0 0-0.7-10.4-4.5-18.6-5.7-12.5-16.1-11.9-18.6-3.9z"/><path class="l" d="m195.1 228.3l8.3-0.2-4 8.7c0 0-3.4 0.4-6.2-4.2l-2.9-3.4 3.4-0.7q0.7-0.2 1.4-0.2z"/><path class="l" d="m208.7 229.7l-4.8 7.2-4.5-0.1 4-8.7z"/><path class="s" d="m166.2 394l-0.4 8.8h-7.4l0.4-8.8z"/><path class="s" d="m106.2 370.3l6.1 4.1-7 5.9-6.1-4.1z"/><path class="l" d="m138.3 157.3c0.4 7.3 0.3 11.5 4 15.3 5.5 5.6 14.5 2.3 16.2-5 1.6-6.5 0.6-17.3-6.5-20.2-7-2.9-14.2 2.6-13.7 9.9z"/><path class="o" d="m129.7 156c1.8 6.6 6.1 14.3 11.6 14.8 6.8 0.6 9.9-6.5 10.8-13.8 4.1-2.8 2-5.9 6.1-6.3 5.2-0.5 3.6-10.1-3.4-11.7 0 0 2.3 4.3-2.5 2.2-4.9-2.2-9.7-3.2-15-2.6 0 0 6.2 3.1 0.1 4.5-6 1.4-7.9 5.1-5.1 7.4 0 0-3.8 1.1-2.6 5.5z"/><path class="l" d="m147.9 158.5c0.2 1.9 1 3.7 2.1 4.9 1.6 1.7 3.3 0.6 3.6-1.5 0.2-2-0.3-5.2-2.3-6.2-1.9-0.9-3.5 0.6-3.4 2.8z"/><path class="f" d="m150.6 247.4c0 0 7.2 51.8 1.6 72.6-9 32.9-43.2 60.7-43.2 60.7l-11.5-7.6c0 0 29.1-23.5 32.6-51 3.2-24.8-4.8-54.7-4.8-74.7 9.1 0 25.3 0 25.3 0z"/><path class="q" d="m150.6 247.4c0 0 7.2 51.8 1.6 72.6-9 32.9-43.2 60.7-43.2 60.7l-11.5-7.6c0 0 29.1-23.5 32.6-51 3.2-24.8-4.8-54.7-4.8-74.7 9.1 0 25.3 0 25.3 0z"/><path class="f" d="m153.6 277c-3.4-3.8-6.3-6-6.3-6 1.2 16.8 2.2 41.8 1.1 59.5 1.5-3.4 2.8-6.9 3.8-10.5 2.7-10.1 2.4-27.7 1.4-43z"/><path class="n" d="m153.6 277c-3.4-3.8-6.3-6-6.3-6 1.2 16.8 2.2 41.8 1.1 59.5 1.5-3.4 2.8-6.9 3.8-10.5 2.7-10.1 2.4-27.7 1.4-43z"/><path class="f" d="m113.7 378.1c0.1 0-4.5 2.9-4.5 2.9l-12.6-8.3 3.9-3.3z"/><path class="n" d="m113.7 378.1c0.1 0-4.5 2.9-4.5 2.9l-12.6-8.3 3.9-3.3z"/><path class="f" d="m164.6 247.4c0 0 11 46.9 11.8 69.3 0.9 25.1-7.9 84.4-7.9 84.4h-12.4c0 0-1.5-59.8-2.1-82.7-0.6-24.9-15.2-71-15.2-71z"/><path class="q" d="m164.6 247.4c0 0 11 46.9 11.8 69.3 0.9 25.1-7.9 84.4-7.9 84.4h-12.4c0 0-1.5-59.8-2.1-82.7-0.6-24.9-15.2-71-15.2-71z"/><path class="f" d="m170.9 396.1c0.1 0-0.7 5.2-0.7 5.2h-15.1l-0.4-4.6z"/><path class="n" d="m170.9 396.1c0.1 0-0.7 5.2-0.7 5.2h-15.1l-0.4-4.6z"/><path class="l" d="m355.9 202.3c0.9 0.8 1.6 1.5 2.3 2.2q1 1.2 2 2.3c1.3 1.5 2.5 3.1 3.7 4.8 2.4 3.2 4.4 6.6 6.3 10.2l0.3 0.7q0.3 0.6 0.5 1.1 0.4 1.2 0.4 2.3c0.1 1.5-0.2 2.8-0.5 4-0.8 2.4-2 4.2-3.2 5.9-2.6 3.4-5.5 6.1-8.8 8.5l-2.5-2.9c1.1-1.3 2.4-2.8 3.4-4.3 1.2-1.4 2.2-2.9 3-4.5 0.9-1.5 1.6-3 1.8-4.4 0.2-0.7 0.2-1.3 0.1-1.7q-0.1-0.3-0.2-0.5 0-0.2-0.1-0.3l-0.3-0.5q-2.9-4.7-6.3-9.1c-1.1-1.5-2.3-2.9-3.5-4.3q-0.9-1-1.8-2c-0.6-0.7-1.3-1.4-1.8-1.9z"/><path class="l" d="m357.4 240.6l-7.5-1.2 3.9 6.5c0 0 4.8-0.2 6.2-3z"/><path class="l" d="m344.4 242.4l3.5 5.3 5.9-1.8-3.9-6.5z"/><path fill-rule="evenodd" class="f" d="m357 411.3c-0.6 0-1.1-0.1-1.4-0.4q-0.4-0.4-0.3-1c0-0.3 0.2-0.4 0.3-0.5 0.9-0.3 3.2 1.1 3.4 1.3q0.1 0.1 0.1 0.2 0 0.1-0.1 0.1c-0.5 0.1-1.3 0.3-2 0.3zm-1-1.6q-0.1 0-0.2 0.1c-0.1 0-0.1 0-0.2 0.2q0 0.4 0.2 0.6c0.4 0.4 1.4 0.4 2.7 0.2-0.8-0.5-1.9-1.1-2.5-1.1z"/><path fill-rule="evenodd" class="f" d="m358.9 411q0 0 0 0c-0.8-0.4-2.1-2-1.9-2.9 0-0.1 0.1-0.4 0.6-0.5q0.4 0 0.7 0.3c0.8 0.7 0.8 2.8 0.8 2.9q0 0.1-0.1 0.2 0 0-0.1 0zm-1.2-3q-0.1 0-0.1 0c-0.2 0-0.3 0.1-0.3 0.2-0.1 0.5 0.7 1.7 1.5 2.3-0.1-0.7-0.2-1.9-0.7-2.4q-0.2-0.1-0.4-0.1z"/><path fill-rule="evenodd" class="f" d="m322.9 411.3c-0.7 0-1.4-0.1-1.8-0.5q-0.4-0.3-0.3-0.8 0-0.4 0.3-0.5c0.9-0.5 3.9 1 4.2 1.2q0.1 0 0.1 0.2 0 0.1-0.1 0.1c-0.7 0.1-1.6 0.3-2.4 0.3zm-1.3-1.6q-0.2 0-0.3 0.1-0.2 0.1-0.2 0.2 0 0.3 0.2 0.6c0.5 0.4 1.7 0.4 3.4 0.2-1-0.5-2.4-1.1-3.1-1.1z"/><path fill-rule="evenodd" class="f" d="m325.2 411q0 0 0 0c-0.9-0.4-2.7-2-2.5-2.9 0-0.2 0.1-0.4 0.6-0.5q0.6 0 1 0.3c0.9 0.8 1.1 2.8 1.1 2.9q0 0.1-0.1 0.2 0 0-0.1 0zm-1.7-3q-0.1 0-0.1 0c-0.4 0-0.4 0.1-0.4 0.2-0.1 0.5 1.1 1.8 2 2.3-0.1-0.6-0.3-1.8-0.9-2.3q-0.3-0.2-0.6-0.2z"/><path class="l" d="m337.1 179.3c-0.3 4.5-1.1 13.7 2.4 16.2 0 0-0.7 4.7-8.8 5.7-9.1 1.2-4.9-3.9-4.9-3.9 4.7-1.8 4.1-5.4 2.8-8.7z"/><path class="o" d="m318.4 171.3q-0.1 0-0.2-0.1c-1.1-1.2-2.4-1-2.4-1-0.2 0-0.3-0.1-0.4-0.3 0-0.2 0.1-0.4 0.3-0.4 0.1 0 1.7-0.3 3 1.2 0.1 0.2 0.1 0.4 0 0.5q-0.1 0.1-0.3 0.1z"/><path class="p" d="m316.9 175.7c0 0-0.7 2.8-1.7 4.1 0.9 0.7 2.2 0.2 2.2 0.2z"/><path class="o" d="m317.3 174.6c0.1 0.6-0.2 1.2-0.6 1.2-0.4 0.1-0.8-0.4-0.8-1-0.1-0.6 0.1-1.1 0.5-1.2 0.4 0 0.8 0.4 0.9 1z"/><path class="o" d="m316.6 173.7l-1.5-0.3c0 0 0.9 1.1 1.5 0.3z"/><path class="l" d="m333.5 410.8h-7.5l-0.5-17.3h7.5z"/><path class="l" d="m367.5 410.8h-7.5l-2.4-17.3h7.5z"/><path class="o" d="m359.6 410h8.4c0.3 0 0.5 0.2 0.6 0.5l1 6.6c0.1 0.7-0.5 1.4-1.2 1.4-3-0.1-4.4-0.2-8.1-0.2-2.3 0-5.6 0.2-8.8 0.2-3 0-3.3-3.1-2-3.4 5.9-1.3 6.8-3 8.8-4.7 0.4-0.3 0.8-0.4 1.3-0.4z"/><path class="o" d="m325.7 410h8.5c0.3 0 0.5 0.2 0.6 0.5l0.9 6.6c0.1 0.7-0.5 1.4-1.2 1.4-2.9-0.1-4.3-0.2-8-0.2-2.3 0-7 0.2-10.2 0.2-3.1 0-3.3-3.1-2-3.4 5.9-1.3 8.2-3 10.2-4.7 0.3-0.3 0.8-0.4 1.2-0.4z"/><path class="s" d="m325.5 393.5l0.3 8.9h7.4l-0.2-8.9z"/><path class="s" d="m365.1 393.5h-7.5l1.3 8.9h7.5z"/><path class="l" d="m337.2 169.9c0.5 7.5 0.9 10.6-2.4 14.9-4.8 6.4-14 5.4-16.8-1.7-2.4-6.4-2.8-17.5 4-21.4 6.7-3.8 14.7 0.8 15.2 8.2z"/><path class="o" d="m341.5 176.8c4.2 2.4 7.2-3.4 7.2-3.4 0 0-7.4 0.8-6.8-3.6 0.9-5.9-3.3-13.1-13.9-12.1q-0.9 0-1.7 0.2c-2-0.9-4.8-0.8-6.6 1.5-2.9 0.2-7 3.8-4.3 8.6 0 0 0.3-0.8 0.9-1.5 0.3 2.8 2.7 7.2 5.7 7.4 0.7 3.8-1.9 8.2-1 12.2 1.3 5.7 10.9 7 10.9 7-1-2.7 0.6-4.4 0.6-4.4 6.6 3 10.9 0.1 10.9 0.1-4.5-1.7-3.1-4.6-3.1-4.6 5.9 2.2 8.4-3.1 8.4-3.1-3.1 0.1-5.8-1.6-7.2-4.3z"/><path class="l" d="m324.6 175.1c0.1 1.5-0.6 2.9-1.5 3.9-1.3 1.3-2.9 0.4-3.4-1.4-0.4-1.6-0.1-4.2 1.6-4.9 1.7-0.7 3.3 0.6 3.3 2.4z"/><path class="o" d="m330.8 244.2c0 0 1.9 49.4 6.5 78.4 3.6 23.4 19.8 78.1 19.8 78.1h10.2c0 0-8.4-52.8-10.3-76-4.7-58.6 7.5-71.2-4-83.4z"/><path class="t" d="m339.4 259.8c0 0-4.6-0.8-7.3 8 1 16.7 2.7 38.8 5.2 54.8 0.5 3.5 1.3 7.8 2.4 12.5-2-28.2-0.3-75.3-0.3-75.3z"/><path class="o" d="m322.9 245.3c0 0-8.5 54.6-8 77.4 0.5 23.8 9.3 78 9.3 78h10.1c0 0-1.6-52.8-0.7-76.2 1-25.4 11.4-82.1 11.4-82.1z"/><path class="f" d="m368.8 401.2h-13.6l-1.1-4.6 14.6 0.1z"/><path class="u" d="m368.8 401.2h-13.6l-1.1-4.6 14.6 0.1z"/><path class="f" d="m352.5 195.6c3.9 0.3 9.8 11.4 9.8 11.4l-9.8 7.6c0 0-8.2-7.2-7.2-11.2 1-4.2 3.5-8.2 7.2-7.8z"/><path class="q" d="m352.5 195.6c3.9 0.3 9.8 11.4 9.8 11.4l-9.8 7.6c0 0-8.2-7.2-7.2-11.2 1-4.2 3.5-8.2 7.2-7.8z"/><path class="f" d="m349.6 200.3c-0.1 0-1.6-0.4-3.1-0.3-0.5 1.1-0.9 2.2-1.2 3.4-1 4 7.2 11.2 7.2 11.2l0.7-0.6z"/><path class="n" d="m349.6 200.3c-0.1 0-1.6-0.4-3.1-0.3-0.5 1.1-0.9 2.2-1.2 3.4-1 4 7.2 11.2 7.2 11.2l0.7-0.6z"/><path class="l" d="m319.5 211c-2.8 7.2-5.8 14.5-8.2 21.8q-0.3 0.7-0.4 1.3l-0.4 1.1c-0.1 0.4-0.1 0.6 0 1.1 0.2 0.8 1.3 2 2.6 3.1 2.7 2.1 6.3 3.7 9.7 5.2l-0.9 3.6c-4.2-0.6-8.1-1.7-12.1-3.9-1.9-1.2-4-2.6-5.4-5.5-0.6-1.3-0.9-3.1-0.7-4.7q0.1-0.3 0.1-0.6l0.1-0.4 0.2-0.8q0.2-0.8 0.4-1.5c1-4 2.3-7.8 3.6-11.6 1.3-3.7 2.8-7.4 4.4-11.2z"/><path class="f" d="m313.5 200.9c0 0-3.4 1.7 9.4 44.4 11.9-1.6 24.3-3.2 30.1-4-2.1-12.2-3.1-19.8-0.5-45.7 0 0-6.5-0.6-13-0.1-5.1 0.5-9.3 0.8-13.7 1.8-5.9 1.3-12.3 3.6-12.3 3.6z"/><path class="q" d="m313.5 200.9c0 0-3.4 1.7 9.4 44.4 11.9-1.6 24.3-3.2 30.1-4-2.1-12.2-3.1-19.8-0.5-45.7 0 0-6.5-0.6-13-0.1-5.1 0.5-9.3 0.8-13.7 1.8-5.9 1.3-12.3 3.6-12.3 3.6z"/><path class="f" d="m353.3 239.5l1.7 2.5c0.1 0.2-0.1 0.5-0.5 0.5l-31.6 4.1c-0.3 0.1-0.5 0-0.6-0.2l-0.6-2.7c0-0.2 0.2-0.3 0.5-0.4l30.5-4c0.3 0 0.5 0.1 0.6 0.2z"/><path class="u" d="m353.3 239.5l1.7 2.5c0.1 0.2-0.1 0.5-0.5 0.5l-31.6 4.1c-0.3 0.1-0.5 0-0.6-0.2l-0.6-2.7c0-0.2 0.2-0.3 0.5-0.4l30.5-4c0.3 0 0.5 0.1 0.6 0.2z"/><path class="o" d="m349.6 243.4l0.8-0.1c0.2 0 0.3-0.1 0.3-0.2l-0.9-3.4c0-0.2-0.1-0.2-0.3-0.2l-0.8 0.1c-0.2 0-0.3 0.1-0.3 0.2l0.9 3.5c0 0.1 0.1 0.2 0.3 0.1z"/><path class="o" d="m329.8 246l0.8-0.1c0.2 0 0.3-0.1 0.2-0.2l-0.8-3.5c0-0.1-0.2-0.1-0.3-0.1l-0.9 0.1c-0.1 0-0.2 0.1-0.2 0.2l0.8 3.5c0.1 0.1 0.2 0.2 0.4 0.1z"/><path class="f" d="m314.9 215.4c0.8 3.8 2 8.7 3.7 14.9l0.3-15.7z"/><path class="n" d="m314.9 215.4c0.8 3.8 2 8.7 3.7 14.9l0.3-15.7z"/><path class="f" d="m313.5 200.9c-3.8 1.5-7 14.3-7 14.3l12.9 6.3c0 0 6.2-15.7 3.4-18.8-2.9-3.1-5-3.5-9.3-1.8z"/><path class="q" d="m313.5 200.9c-3.8 1.5-7 14.3-7 14.3l12.9 6.3c0 0 6.2-15.7 3.4-18.8-2.9-3.1-5-3.5-9.3-1.8z"/><path class="f" d="m336 401.2h-13.6l-1-4.6 15.1 0.1z"/><path class="u" d="m336 401.2h-13.6l-1-4.6 15.1 0.1z"/><path class="l" d="m323 243.3l-1.1-0.5c-1.2-0.5-2.4 0.5-2.2 1.8l0.8 5.2c0.1 1.1 1.3 1.8 2.3 1.4q0.6-0.2 1.1-0.6c0.8-0.6 1.1-1.5 1.1-2.5l-0.1-2.1c-0.1-1.2-0.8-2.3-1.9-2.7z"/></svg>