<svg xmlns="http://www.w3.org/2000/svg" xmlns:xlink="http://www.w3.org/1999/xlink" version="1.1" width="256" height="256" viewBox="0 0 256 256" xml:space="preserve">

<defs>
</defs>
<g style="stroke: none; stroke-width: 0; stroke-dasharray: none; stroke-linecap: butt; stroke-linejoin: miter; stroke-miterlimit: 10; fill: none; fill-rule: nonzero; opacity: 1;" transform="translate(1.4065934065934016 1.4065934065934016) scale(2.81 2.81)" >
	<path d="M 45 43.748 c -8.224 0 -14.944 6.374 -15.528 14.449 c 3.731 4.411 9.299 7.219 15.528 7.219 s 11.798 -2.808 15.528 -7.219 C 59.944 50.122 53.224 43.748 45 43.748 z" style="stroke: none; stroke-width: 1; stroke-dasharray: none; stroke-linecap: butt; stroke-linejoin: miter; stroke-miterlimit: 10; fill: rgb(219,82,82); fill-rule: nonzero; opacity: 1;" transform=" matrix(1 0 0 1 0 0) " stroke-linecap="round" />
	<path d="M 45 43.748 L 45 43.748 c -4.744 0 -8.591 -3.846 -8.591 -8.591 v -2.578 c 0 -4.744 3.846 -8.591 8.591 -8.591 h 0 c 4.744 0 8.591 3.846 8.591 8.591 v 2.578 C 53.591 39.902 49.744 43.748 45 43.748 z" style="stroke: none; stroke-width: 1; stroke-dasharray: none; stroke-linecap: butt; stroke-linejoin: miter; stroke-miterlimit: 10; fill: rgb(245,197,162); fill-rule: nonzero; opacity: 1;" transform=" matrix(1 0 0 1 0 0) " stroke-linecap="round" />
	<path d="M 45 44.748 c -5.288 0 -9.59 -4.302 -9.59 -9.59 v -2.578 c 0 -5.289 4.302 -9.591 9.59 -9.591 s 9.591 4.302 9.591 9.591 v 2.578 C 54.591 40.445 50.288 44.748 45 44.748 z M 45 24.988 c -4.186 0 -7.59 3.405 -7.59 7.591 v 2.578 c 0 4.186 3.405 7.59 7.59 7.59 s 7.591 -3.405 7.591 -7.59 v -2.578 C 52.591 28.394 49.186 24.988 45 24.988 z" style="stroke: none; stroke-width: 1; stroke-dasharray: none; stroke-linecap: butt; stroke-linejoin: miter; stroke-miterlimit: 10; fill: rgb(0,0,0); fill-rule: nonzero; opacity: 1;" transform=" matrix(1 0 0 1 0 0) " stroke-linecap="round" />
	<path d="M 45 66.416 c -6.283 0 -12.221 -2.761 -16.292 -7.574 c -0.168 -0.199 -0.252 -0.457 -0.234 -0.718 C 29.099 49.502 36.357 42.748 45 42.748 c 8.644 0 15.902 6.754 16.525 15.376 c 0.02 0.261 -0.064 0.519 -0.233 0.718 C 57.222 63.655 51.283 66.416 45 66.416 z M 30.504 57.862 c 3.68 4.17 8.939 6.554 14.496 6.554 s 10.816 -2.384 14.496 -6.554 C 58.753 50.476 52.464 44.748 45 44.748 C 37.537 44.748 31.248 50.476 30.504 57.862 z" style="stroke: none; stroke-width: 1; stroke-dasharray: none; stroke-linecap: butt; stroke-linejoin: miter; stroke-miterlimit: 10; fill: rgb(0,0,0); fill-rule: nonzero; opacity: 1;" transform=" matrix(1 0 0 1 0 0) " stroke-linecap="round" />
	<path d="M 45.408 73.981 l 2.122 4.299 c 0.066 0.134 0.194 0.227 0.342 0.249 l 4.744 0.689 c 0.373 0.054 0.522 0.512 0.252 0.775 l -3.433 3.346 c -0.107 0.104 -0.156 0.255 -0.131 0.402 l 0.81 4.725 c 0.064 0.371 -0.326 0.655 -0.66 0.479 l -4.243 -2.231 c -0.132 -0.07 -0.291 -0.07 -0.423 0 l -4.243 2.231 c -0.334 0.175 -0.723 -0.108 -0.66 -0.479 l 0.81 -4.725 c 0.025 -0.147 -0.024 -0.298 -0.131 -0.402 l -3.433 -3.346 c -0.27 -0.263 -0.121 -0.721 0.252 -0.775 l 4.744 -0.689 c 0.148 -0.022 0.276 -0.115 0.342 -0.249 l 2.122 -4.299 C 44.759 73.643 45.241 73.643 45.408 73.981 z" style="stroke: none; stroke-width: 1; stroke-dasharray: none; stroke-linecap: butt; stroke-linejoin: miter; stroke-miterlimit: 10; fill: rgb(255,209,91); fill-rule: nonzero; opacity: 1;" transform=" matrix(1 0 0 1 0 0) " stroke-linecap="round" />
	<path d="M 40.332 90 c -0.3 0 -0.598 -0.094 -0.853 -0.278 c -0.451 -0.327 -0.673 -0.873 -0.58 -1.423 l 0.762 -4.443 l -3.227 -3.146 c -0.4 -0.391 -0.541 -0.962 -0.368 -1.493 c 0.173 -0.529 0.624 -0.908 1.175 -0.988 l 4.459 -0.647 l 1.995 -4.042 c 0.248 -0.501 0.747 -0.812 1.305 -0.812 s 1.058 0.311 1.305 0.811 v 0.001 l 1.994 4.042 l 4.461 0.648 c 0.551 0.079 1.001 0.458 1.174 0.987 c 0.173 0.53 0.032 1.103 -0.366 1.492 l -3.229 3.147 l 0.762 4.442 c 0.096 0.548 -0.126 1.094 -0.577 1.422 c -0.453 0.328 -1.041 0.371 -1.534 0.11 L 45 87.734 l -3.99 2.097 C 40.796 89.944 40.563 90 40.332 90 z M 49.129 88.637 c 0 0.001 0 0.001 0 0.002 V 88.637 z M 38.622 80.05 l 2.641 2.574 c 0.343 0.333 0.5 0.815 0.418 1.288 l -0.624 3.635 l 3.266 -1.716 c 0.424 -0.223 0.929 -0.222 1.353 -0.001 l 3.266 1.717 l -0.623 -3.636 c -0.079 -0.475 0.077 -0.952 0.416 -1.285 l 2.645 -2.576 l -3.65 -0.531 c -0.473 -0.068 -0.882 -0.365 -1.095 -0.794 L 45 75.415 l -1.632 3.308 c -0.214 0.431 -0.623 0.728 -1.096 0.796 L 38.622 80.05 z M 37.529 80.208 L 37.529 80.208 C 37.528 80.208 37.529 80.208 37.529 80.208 z M 44.511 74.425 c 0 0 0 0.001 0.001 0.002 L 44.511 74.425 z" style="stroke: none; stroke-width: 1; stroke-dasharray: none; stroke-linecap: butt; stroke-linejoin: miter; stroke-miterlimit: 10; fill: rgb(0,0,0); fill-rule: nonzero; opacity: 1;" transform=" matrix(1 0 0 1 0 0) " stroke-linecap="round" />
	<path d="M 45.408 1.253 l 2.122 4.299 c 0.066 0.134 0.194 0.227 0.342 0.249 l 4.744 0.689 c 0.373 0.054 0.522 0.512 0.252 0.775 l -3.433 3.346 c -0.107 0.104 -0.156 0.255 -0.131 0.402 l 0.81 4.725 c 0.064 0.371 -0.326 0.655 -0.66 0.479 l -4.243 -2.231 c -0.132 -0.07 -0.291 -0.07 -0.423 0 l -4.243 2.231 c -0.334 0.175 -0.723 -0.108 -0.66 -0.479 l 0.81 -4.725 c 0.025 -0.147 -0.024 -0.298 -0.131 -0.402 l -3.433 -3.346 c -0.27 -0.263 -0.121 -0.721 0.252 -0.775 l 4.744 -0.689 c 0.148 -0.022 0.276 -0.115 0.342 -0.249 l 2.122 -4.299 C 44.759 0.916 45.241 0.916 45.408 1.253 z" style="stroke: none; stroke-width: 1; stroke-dasharray: none; stroke-linecap: butt; stroke-linejoin: miter; stroke-miterlimit: 10; fill: rgb(255,209,91); fill-rule: nonzero; opacity: 1;" transform=" matrix(1 0 0 1 0 0) " stroke-linecap="round" />
	<path d="M 49.668 17.272 c -0.231 0 -0.464 -0.056 -0.679 -0.169 L 45 15.006 l -3.99 2.098 c -0.495 0.258 -1.081 0.216 -1.532 -0.111 c -0.451 -0.328 -0.673 -0.873 -0.579 -1.422 l 0.762 -4.443 l -3.228 -3.146 c -0.399 -0.389 -0.541 -0.96 -0.368 -1.491 c 0.172 -0.53 0.623 -0.91 1.175 -0.99 l 4.46 -0.647 l 1.995 -4.042 C 43.943 0.311 44.442 0 45 0 s 1.058 0.311 1.305 0.811 v 0 l 1.994 4.042 L 52.76 5.5 c 0.552 0.081 1.002 0.46 1.174 0.99 c 0.173 0.53 0.032 1.102 -0.367 1.491 l -3.229 3.147 l 0.762 4.442 c 0.096 0.547 -0.126 1.093 -0.577 1.421 C 50.268 17.178 49.969 17.272 49.668 17.272 z M 49.129 15.909 c 0 0.001 0 0.001 0 0.002 V 15.909 z M 38.621 7.321 l 2.642 2.575 c 0.343 0.333 0.5 0.815 0.418 1.288 l -0.624 3.635 l 3.266 -1.717 c 0.424 -0.223 0.929 -0.222 1.353 0 l 3.266 1.717 l -0.623 -3.636 c -0.079 -0.474 0.077 -0.953 0.416 -1.285 l 2.645 -2.578 l -3.65 -0.53 c -0.474 -0.069 -0.883 -0.366 -1.096 -0.795 L 45 2.687 l -1.632 3.308 c -0.213 0.43 -0.622 0.728 -1.096 0.796 L 38.621 7.321 z M 44.511 1.696 c 0 0.001 0 0.001 0.001 0.002 L 44.511 1.696 z" style="stroke: none; stroke-width: 1; stroke-dasharray: none; stroke-linecap: butt; stroke-linejoin: miter; stroke-miterlimit: 10; fill: rgb(0,0,0); fill-rule: nonzero; opacity: 1;" transform=" matrix(1 0 0 1 0 0) " stroke-linecap="round" />
	<path d="M 81.311 37.617 l 2.122 4.299 c 0.066 0.134 0.194 0.227 0.342 0.249 l 4.744 0.689 c 0.373 0.054 0.522 0.512 0.252 0.775 l -3.433 3.346 c -0.107 0.104 -0.156 0.255 -0.131 0.402 l 0.81 4.725 c 0.064 0.371 -0.326 0.655 -0.66 0.479 l -4.243 -2.231 c -0.132 -0.07 -0.291 -0.07 -0.423 0 l -4.243 2.231 c -0.334 0.175 -0.723 -0.108 -0.66 -0.479 l 0.81 -4.725 c 0.025 -0.147 -0.024 -0.298 -0.131 -0.402 l -3.433 -3.346 c -0.27 -0.263 -0.121 -0.721 0.252 -0.775 l 4.744 -0.689 c 0.148 -0.022 0.276 -0.115 0.342 -0.249 l 2.122 -4.299 C 80.663 37.279 81.145 37.279 81.311 37.617 z" style="stroke: none; stroke-width: 1; stroke-dasharray: none; stroke-linecap: butt; stroke-linejoin: miter; stroke-miterlimit: 10; fill: rgb(255,209,91); fill-rule: nonzero; opacity: 1;" transform=" matrix(1 0 0 1 0 0) " stroke-linecap="round" />
	<path d="M 85.571 53.637 c -0.23 0 -0.462 -0.056 -0.677 -0.168 l -3.99 -2.099 l -3.989 2.098 c -0.498 0.262 -1.083 0.217 -1.533 -0.111 c -0.451 -0.328 -0.673 -0.872 -0.578 -1.422 l 0.762 -4.442 l -3.228 -3.146 c -0.399 -0.388 -0.541 -0.959 -0.368 -1.49 c 0.172 -0.531 0.622 -0.91 1.175 -0.991 l 4.46 -0.648 l 1.995 -4.042 c 0.247 -0.5 0.747 -0.811 1.305 -0.811 c 0.557 0 1.057 0.311 1.304 0.811 v 0 l 1.994 4.042 l 4.461 0.648 c 0.552 0.08 1.002 0.459 1.174 0.989 c 0.173 0.53 0.032 1.102 -0.367 1.491 l -3.228 3.147 l 0.762 4.442 c 0.095 0.55 -0.127 1.094 -0.578 1.422 C 86.171 53.542 85.872 53.637 85.571 53.637 z M 80.903 49.3 c 0.231 0 0.463 0.055 0.675 0.165 l 3.268 1.719 l -0.623 -3.636 c -0.081 -0.472 0.075 -0.954 0.419 -1.288 l 2.641 -2.575 l -3.65 -0.53 c -0.473 -0.068 -0.882 -0.365 -1.095 -0.793 l -1.634 -3.311 l -1.633 3.308 c -0.213 0.43 -0.622 0.727 -1.094 0.796 l -3.651 0.53 l 2.642 2.576 c 0.343 0.333 0.499 0.815 0.418 1.288 l -0.623 3.635 l 3.265 -1.717 C 80.438 49.355 80.671 49.3 80.903 49.3 z M 80.415 38.06 c 0 0.001 0.001 0.002 0.001 0.003 L 80.415 38.06 z" style="stroke: none; stroke-width: 1; stroke-dasharray: none; stroke-linecap: butt; stroke-linejoin: miter; stroke-miterlimit: 10; fill: rgb(0,0,0); fill-rule: nonzero; opacity: 1;" transform=" matrix(1 0 0 1 0 0) " stroke-linecap="round" />
	<path d="M 9.504 37.617 l 2.122 4.299 c 0.066 0.134 0.194 0.227 0.342 0.249 l 4.744 0.689 c 0.373 0.054 0.522 0.512 0.252 0.775 l -3.433 3.346 c -0.107 0.104 -0.156 0.255 -0.131 0.402 l 0.81 4.725 c 0.064 0.371 -0.326 0.655 -0.66 0.479 l -4.243 -2.231 c -0.132 -0.07 -0.291 -0.07 -0.423 0 l -4.243 2.231 c -0.334 0.175 -0.723 -0.108 -0.66 -0.479 l 0.81 -4.725 c 0.025 -0.147 -0.024 -0.298 -0.131 -0.402 L 1.229 43.63 c -0.27 -0.263 -0.121 -0.721 0.252 -0.775 l 4.744 -0.689 c 0.148 -0.022 0.276 -0.115 0.342 -0.249 l 2.122 -4.299 C 8.855 37.279 9.337 37.279 9.504 37.617 z" style="stroke: none; stroke-width: 1; stroke-dasharray: none; stroke-linecap: butt; stroke-linejoin: miter; stroke-miterlimit: 10; fill: rgb(255,209,91); fill-rule: nonzero; opacity: 1;" transform=" matrix(1 0 0 1 0 0) " stroke-linecap="round" />
	<path d="M 13.764 53.637 c -0.23 0 -0.462 -0.056 -0.677 -0.168 l -3.99 -2.099 l -3.99 2.098 c -0.495 0.262 -1.082 0.216 -1.533 -0.111 c -0.451 -0.328 -0.672 -0.874 -0.577 -1.423 l 0.761 -4.441 L 0.53 44.346 c -0.399 -0.389 -0.541 -0.96 -0.368 -1.491 c 0.172 -0.531 0.623 -0.91 1.175 -0.99 l 4.46 -0.648 l 1.995 -4.042 c 0.248 -0.5 0.747 -0.811 1.305 -0.811 c 0 0 0.001 0 0.001 0 c 0.558 0 1.057 0.311 1.304 0.812 l 1.994 4.042 l 4.461 0.648 c 0.551 0.081 1.001 0.459 1.174 0.99 c 0.172 0.53 0.032 1.102 -0.367 1.491 l -3.229 3.147 l 0.762 4.442 c 0.094 0.55 -0.128 1.095 -0.579 1.422 C 14.363 53.542 14.064 53.637 13.764 53.637 z M 2.718 43.685 l 2.642 2.576 c 0.343 0.335 0.499 0.816 0.417 1.288 l -0.623 3.635 l 3.265 -1.717 c 0.423 -0.222 0.928 -0.223 1.352 -0.002 l 3.268 1.719 l -0.624 -3.636 c -0.081 -0.471 0.075 -0.952 0.418 -1.286 l 2.643 -2.577 l -3.651 -0.53 c -0.472 -0.069 -0.881 -0.365 -1.094 -0.793 l -1.634 -3.311 l -1.632 3.308 c -0.211 0.429 -0.621 0.727 -1.096 0.796 L 2.718 43.685 z" style="stroke: none; stroke-width: 1; stroke-dasharray: none; stroke-linecap: butt; stroke-linejoin: miter; stroke-miterlimit: 10; fill: rgb(0,0,0); fill-rule: nonzero; opacity: 1;" transform=" matrix(1 0 0 1 0 0) " stroke-linecap="round" />
	<path d="M 71.281 13.682 l 2.122 4.299 c 0.066 0.134 0.194 0.227 0.342 0.249 l 4.744 0.689 c 0.373 0.054 0.522 0.512 0.252 0.775 l -3.433 3.346 c -0.107 0.104 -0.156 0.255 -0.131 0.402 l 0.81 4.725 c 0.064 0.371 -0.326 0.655 -0.66 0.479 l -4.243 -2.231 c -0.132 -0.07 -0.291 -0.07 -0.423 0 l -4.243 2.231 c -0.334 0.175 -0.723 -0.108 -0.66 -0.479 l 0.81 -4.725 c 0.025 -0.147 -0.024 -0.298 -0.131 -0.402 l -3.433 -3.346 c -0.27 -0.263 -0.121 -0.721 0.252 -0.775 l 4.744 -0.689 c 0.148 -0.022 0.276 -0.115 0.342 -0.249 l 2.122 -4.299 C 70.632 13.344 71.114 13.344 71.281 13.682 z" style="stroke: none; stroke-width: 1; stroke-dasharray: none; stroke-linecap: butt; stroke-linejoin: miter; stroke-miterlimit: 10; fill: rgb(255,209,91); fill-rule: nonzero; opacity: 1;" transform=" matrix(1 0 0 1 0 0) " stroke-linecap="round" />
	<path d="M 66.205 29.701 c -0.3 0 -0.598 -0.094 -0.853 -0.279 c -0.451 -0.328 -0.674 -0.873 -0.579 -1.422 l 0.762 -4.443 l -3.228 -3.146 c -0.399 -0.388 -0.541 -0.959 -0.368 -1.49 c 0.172 -0.531 0.622 -0.911 1.175 -0.991 l 4.46 -0.647 l 1.995 -4.042 c 0.247 -0.5 0.747 -0.811 1.305 -0.811 c 0.557 0 1.057 0.311 1.304 0.811 v 0 l 1.994 4.042 l 4.461 0.647 c 0.552 0.08 1.002 0.459 1.174 0.989 c 0.173 0.531 0.032 1.102 -0.367 1.492 l -3.228 3.147 l 0.762 4.442 c 0.095 0.55 -0.127 1.095 -0.578 1.422 c -0.45 0.326 -1.037 0.371 -1.532 0.111 l -3.99 -2.098 l -3.99 2.098 C 66.669 29.645 66.437 29.701 66.205 29.701 z M 70.873 25.364 c 0.231 0 0.463 0.055 0.675 0.166 l 3.268 1.718 l -0.623 -3.636 c -0.081 -0.472 0.075 -0.954 0.419 -1.288 l 2.641 -2.574 l -3.65 -0.53 c -0.476 -0.07 -0.884 -0.368 -1.096 -0.795 l -1.633 -3.309 l -1.633 3.308 c -0.212 0.428 -0.619 0.725 -1.091 0.795 l -3.654 0.531 l 2.642 2.575 c 0.343 0.333 0.499 0.815 0.418 1.288 l -0.623 3.635 l 3.266 -1.717 C 70.408 25.419 70.641 25.364 70.873 25.364 z M 70.385 14.125 c 0 0.001 0.001 0.002 0.001 0.003 L 70.385 14.125 z" style="stroke: none; stroke-width: 1; stroke-dasharray: none; stroke-linecap: butt; stroke-linejoin: miter; stroke-miterlimit: 10; fill: rgb(0,0,0); fill-rule: nonzero; opacity: 1;" transform=" matrix(1 0 0 1 0 0) " stroke-linecap="round" />
	<path d="M 19.534 13.682 l 2.122 4.299 c 0.066 0.134 0.194 0.227 0.342 0.249 l 4.744 0.689 c 0.373 0.054 0.522 0.512 0.252 0.775 l -3.433 3.346 c -0.107 0.104 -0.156 0.255 -0.131 0.402 l 0.81 4.725 c 0.064 0.371 -0.326 0.655 -0.66 0.479 l -4.243 -2.231 c -0.132 -0.07 -0.291 -0.07 -0.423 0 l -4.243 2.231 c -0.334 0.175 -0.723 -0.108 -0.66 -0.479 l 0.81 -4.725 c 0.025 -0.147 -0.024 -0.298 -0.131 -0.402 l -3.433 -3.346 c -0.27 -0.263 -0.121 -0.721 0.252 -0.775 l 4.744 -0.689 c 0.148 -0.022 0.276 -0.115 0.342 -0.249 l 2.122 -4.299 C 18.886 13.344 19.368 13.344 19.534 13.682 z" style="stroke: none; stroke-width: 1; stroke-dasharray: none; stroke-linecap: butt; stroke-linejoin: miter; stroke-miterlimit: 10; fill: rgb(255,209,91); fill-rule: nonzero; opacity: 1;" transform=" matrix(1 0 0 1 0 0) " stroke-linecap="round" />
	<path d="M 14.459 29.701 c -0.301 0 -0.599 -0.094 -0.854 -0.28 c -0.451 -0.328 -0.672 -0.873 -0.578 -1.423 l 0.762 -4.441 l -3.228 -3.146 c -0.4 -0.391 -0.541 -0.962 -0.368 -1.493 c 0.173 -0.53 0.623 -0.909 1.174 -0.989 l 4.46 -0.647 l 1.996 -4.042 c 0.246 -0.5 0.746 -0.811 1.304 -0.811 c 0.558 0 1.058 0.311 1.304 0.812 l 1.995 4.042 l 4.46 0.647 c 0.552 0.081 1.001 0.459 1.174 0.99 c 0.172 0.53 0.032 1.102 -0.367 1.491 l -3.229 3.147 l 0.762 4.442 c 0.094 0.55 -0.128 1.095 -0.579 1.422 c -0.451 0.328 -1.038 0.371 -1.532 0.111 l -3.989 -2.098 l -3.99 2.098 C 14.922 29.645 14.69 29.701 14.459 29.701 z M 19.127 25.364 c 0.231 0 0.463 0.055 0.674 0.166 l 3.268 1.718 l -0.624 -3.636 c -0.081 -0.471 0.075 -0.952 0.418 -1.287 l 2.643 -2.576 l -3.65 -0.53 c -0.477 -0.071 -0.886 -0.369 -1.096 -0.798 l -1.632 -3.306 l -1.633 3.308 c -0.209 0.427 -0.618 0.725 -1.092 0.795 l -3.653 0.531 l 2.642 2.575 c 0.342 0.334 0.499 0.814 0.419 1.285 l -0.624 3.638 l 3.265 -1.717 C 18.662 25.42 18.895 25.364 19.127 25.364 z M 15.701 17.538 c 0 0.001 -0.001 0.001 -0.001 0.002 L 15.701 17.538 z M 22.552 17.536 l 0.001 0.002 C 22.553 17.537 22.552 17.537 22.552 17.536 z" style="stroke: none; stroke-width: 1; stroke-dasharray: none; stroke-linecap: butt; stroke-linejoin: miter; stroke-miterlimit: 10; fill: rgb(0,0,0); fill-rule: nonzero; opacity: 1;" transform=" matrix(1 0 0 1 0 0) " stroke-linecap="round" />
	<path d="M 71.281 61.553 l 2.122 4.299 c 0.066 0.134 0.194 0.227 0.342 0.249 l 4.744 0.689 c 0.373 0.054 0.522 0.512 0.252 0.775 l -3.433 3.346 c -0.107 0.104 -0.156 0.255 -0.131 0.402 l 0.81 4.725 c 0.064 0.371 -0.326 0.655 -0.66 0.479 l -4.243 -2.231 c -0.132 -0.07 -0.291 -0.07 -0.423 0 l -4.243 2.231 c -0.334 0.175 -0.723 -0.108 -0.66 -0.479 l 0.81 -4.725 c 0.025 -0.147 -0.024 -0.298 -0.131 -0.402 l -3.433 -3.346 c -0.27 -0.263 -0.121 -0.721 0.252 -0.775 l 4.744 -0.689 c 0.148 -0.022 0.276 -0.115 0.342 -0.249 l 2.122 -4.299 C 70.632 61.215 71.114 61.215 71.281 61.553 z" style="stroke: none; stroke-width: 1; stroke-dasharray: none; stroke-linecap: butt; stroke-linejoin: miter; stroke-miterlimit: 10; fill: rgb(255,209,91); fill-rule: nonzero; opacity: 1;" transform=" matrix(1 0 0 1 0 0) " stroke-linecap="round" />
	<path d="M 66.205 77.572 c -0.299 0 -0.597 -0.093 -0.852 -0.277 c -0.452 -0.328 -0.675 -0.873 -0.58 -1.424 l 0.762 -4.443 l -3.228 -3.146 c -0.398 -0.387 -0.54 -0.958 -0.369 -1.488 c 0.172 -0.531 0.622 -0.911 1.174 -0.992 l 4.462 -0.648 l 1.995 -4.042 c 0.247 -0.501 0.747 -0.811 1.305 -0.811 c 0.557 0 1.057 0.31 1.304 0.81 v 0.001 l 1.994 4.042 l 4.461 0.648 c 0.554 0.081 1.003 0.46 1.175 0.991 c 0.172 0.529 0.03 1.101 -0.368 1.489 l -3.228 3.146 l 0.762 4.442 c 0.095 0.551 -0.128 1.096 -0.579 1.424 c -0.453 0.327 -1.04 0.369 -1.532 0.109 l -3.989 -2.097 l -3.99 2.097 C 66.669 77.517 66.437 77.572 66.205 77.572 z M 70.62 75.173 c 0 0.001 0.001 0.001 0.002 0.002 L 70.62 75.173 z M 71.133 75.171 l -0.006 0.003 C 71.129 75.173 71.131 75.172 71.133 75.171 z M 70.872 73.234 c 0.232 0 0.467 0.057 0.681 0.17 l 3.264 1.715 l -0.624 -3.636 c -0.081 -0.472 0.075 -0.954 0.419 -1.288 l 2.641 -2.574 l -3.65 -0.531 c -0.473 -0.068 -0.883 -0.364 -1.095 -0.793 l -1.634 -3.311 l -1.633 3.309 c -0.213 0.43 -0.622 0.727 -1.094 0.795 l -3.651 0.531 l 2.642 2.575 c 0.343 0.333 0.499 0.815 0.418 1.288 l -0.623 3.635 l 3.266 -1.716 C 70.407 73.291 70.639 73.234 70.872 73.234 z M 63.702 66.848 l 0.002 0.002 C 63.703 66.849 63.703 66.849 63.702 66.848 z M 70.385 61.996 L 70.385 61.996 L 70.385 61.996 z" style="stroke: none; stroke-width: 1; stroke-dasharray: none; stroke-linecap: butt; stroke-linejoin: miter; stroke-miterlimit: 10; fill: rgb(0,0,0); fill-rule: nonzero; opacity: 1;" transform=" matrix(1 0 0 1 0 0) " stroke-linecap="round" />
	<path d="M 19.534 61.553 l 2.122 4.299 c 0.066 0.134 0.194 0.227 0.342 0.249 l 4.744 0.689 c 0.373 0.054 0.522 0.512 0.252 0.775 l -3.433 3.346 c -0.107 0.104 -0.156 0.255 -0.131 0.402 l 0.81 4.725 c 0.064 0.371 -0.326 0.655 -0.66 0.479 l -4.243 -2.231 c -0.132 -0.07 -0.291 -0.07 -0.423 0 l -4.243 2.231 c -0.334 0.175 -0.723 -0.108 -0.66 -0.479 l 0.81 -4.725 c 0.025 -0.147 -0.024 -0.298 -0.131 -0.402 l -3.433 -3.346 c -0.27 -0.263 -0.121 -0.721 0.252 -0.775 l 4.744 -0.689 c 0.148 -0.022 0.276 -0.115 0.342 -0.249 l 2.122 -4.299 C 18.886 61.215 19.368 61.215 19.534 61.553 z" style="stroke: none; stroke-width: 1; stroke-dasharray: none; stroke-linecap: butt; stroke-linejoin: miter; stroke-miterlimit: 10; fill: rgb(255,209,91); fill-rule: nonzero; opacity: 1;" transform=" matrix(1 0 0 1 0 0) " stroke-linecap="round" />
	<path d="M 14.459 77.572 c -0.3 0 -0.599 -0.094 -0.854 -0.278 c -0.452 -0.328 -0.673 -0.874 -0.579 -1.425 l 0.762 -4.441 l -3.228 -3.146 c -0.399 -0.389 -0.54 -0.96 -0.368 -1.489 c 0.172 -0.531 0.622 -0.91 1.173 -0.991 l 4.462 -0.648 l 1.995 -4.042 c 0.247 -0.5 0.747 -0.811 1.305 -0.811 c 0.558 0 1.057 0.311 1.304 0.811 l 1.995 4.042 l 4.461 0.648 c 0.553 0.081 1.002 0.461 1.174 0.991 c 0.171 0.53 0.03 1.101 -0.369 1.489 l -3.228 3.146 l 0.762 4.442 c 0.094 0.551 -0.128 1.097 -0.58 1.424 c -0.452 0.328 -1.038 0.369 -1.532 0.109 l -3.989 -2.097 l -3.989 2.097 C 14.923 77.517 14.69 77.572 14.459 77.572 z M 18.873 75.173 c 0.001 0.001 0.001 0.001 0.002 0.002 L 18.873 75.173 z M 19.384 75.171 l -0.004 0.003 C 19.381 75.173 19.383 75.172 19.384 75.171 z M 19.125 73.235 c 0.233 0 0.467 0.056 0.681 0.169 l 3.263 1.715 l -0.624 -3.636 c -0.081 -0.471 0.075 -0.952 0.418 -1.286 l 2.643 -2.576 l -3.651 -0.531 c -0.474 -0.068 -0.884 -0.366 -1.095 -0.795 l -1.632 -3.309 l -1.633 3.309 c -0.211 0.429 -0.622 0.727 -1.096 0.795 l -3.65 0.531 l 2.642 2.575 c 0.342 0.334 0.498 0.814 0.418 1.285 l -0.624 3.638 l 3.265 -1.716 C 18.66 73.291 18.893 73.235 19.125 73.235 z M 18.637 61.995 c 0 0 0 0.001 0.001 0.002 L 18.637 61.995 z" style="stroke: none; stroke-width: 1; stroke-dasharray: none; stroke-linecap: butt; stroke-linejoin: miter; stroke-miterlimit: 10; fill: rgb(0,0,0); fill-rule: nonzero; opacity: 1;" transform=" matrix(1 0 0 1 0 0) " stroke-linecap="round" />
</g>
</svg>