<svg class="svg-icon" style="width: 1em;height: 1em;vertical-align: middle;fill: currentColor;overflow: hidden;" viewBox="0 0 1024 1024" version="1.1" xmlns="http://www.w3.org/2000/svg"><path d="M252.3 320.1h333.1v64H252.3zM252.3 511.5h213.1v64H252.3zM252.3 703.9h111v64h-111z" fill="#5280C1" /><path d="M691.5 926.9c-53.2-5.1-102.6-28.3-140.9-66.6-43.7-43.6-67.7-101.6-67.7-163.3 0-95.5 58.4-177.7 141.4-212.8-83 35.1-141.3 117.3-141.3 212.9 0 119.7 91.6 218.4 208.5 229.8z m45.3 0C853.7 915.5 945.4 816.8 945.4 697c0-95.5-58.4-177.7-141.4-212.8 83 35.1 141.4 117.3 141.4 212.8 0 61.7-24.1 119.7-67.8 163.3-38.2 38.3-87.5 61.5-140.8 66.6z" fill="#FFFFFF" /><path d="M714.1 434.1c-145.1 0-263.2 118-263.2 262.9 0 70.3 27.4 136.3 77.1 186 49.7 49.7 115.8 77 186.1 77s136.5-27.3 186.2-77c49.8-49.7 77.2-115.7 77.2-186 0-144.9-118.1-262.9-263.4-262.9z m0 461.9c-109.8 0-199.2-89.3-199.2-199s89.3-199 199.2-199c109.9 0 199.3 89.3 199.3 199S824 896 714.1 896z" fill="#727272" /><path d="M839.1 617.6l-45.4-45.2-79.5 79.4-79.5-79.4-45.3 45.2 79.5 79.5-79.5 79.4 45.3 45.2 79.5-79.4 79.5 79.4 45.4-45.2-79.6-79.4z" fill="#CE6043" /><path d="M447.9 206.9c30-0.7 54.3-25.3 54.3-55.4 0-23-14.1-42.7-34-51.1 20 8.4 34.1 28.2 34.1 51.1 0 5-0.7 10-2 14.8L489 206.9h-41.1z m-99 0l-11.3-40.6c-1.3-4.8-2-9.8-2-14.8 0-22.9 14-42.7 34-51.1-19.9 8.4-33.9 28.2-33.9 51.1 0 30.2 24.2 54.8 54.3 55.4h-41.1z" fill="#FFFFFF" /><path d="M446.6 64h-55.5c-48.3 0-87.6 39.2-87.6 87.4 0 8.1 1.1 16 3.2 23.4h-54.4v64h333.1v-64H531a86.4 86.4 0 0 0 3.2-23.4c0-48.2-39.3-87.4-87.6-87.4z m-55.5 110.9c-12.9 0-23.5-10.5-23.5-23.4 0-12.9 10.5-23.4 23.5-23.4h55.5c12.9 0 23.5 10.5 23.5 23.4 0 12.9-10.5 23.4-23.5 23.4h-55.5z" fill="#727272" /><path d="M736.4 927c117.1-11.2 209-110 209-229.9 0-24.9-4-48.8-11.3-71.3 7.4 22.8 11.3 46.9 11.3 71.3 0 61.7-24.1 119.7-67.8 163.3-38.3 38.3-87.8 61.5-141.2 66.6z m-62.8-2.5c-26.4-4.7-51.8-13.8-74.9-27.2l-7.4-4.3H575l-41.7-52c-32.9-41.1-50.4-90.9-50.4-143.9 0-58.2 21.8-113.8 61.5-156.7 20.6-22.2 45-40 71.8-52.5C537.6 524.8 483 604.7 483 697.1c0 113.5 82.4 208.1 190.6 227.4z m-516.5-35.2c-8.2-2.8-16-7.1-22.8-12.5-3-2.5-5.8-5.1-8.2-7.9 8.1 9.2 19.3 16.3 31 20.4z m-41-37.3c-1.7-4.7-2.6-9.6-2.6-14.4v-575c0-4.8 0.9-9.7 2.6-14.4-1.6 4.6-2.5 9.4-2.5 14.4v575c0 5 0.9 9.8 2.5 14.4z m808-251.7c-12.3-26.5-29.5-50.4-50.5-70.3 5.6 5.3 10.9 10.9 15.9 16.8 14.1 16.2 25.7 34.3 34.6 53.5zM747.7 468.5c-11-1.6-22.2-2.4-33.6-2.4-5.3 0-10.5 0.2-15.7 0.5l25.8-2.1V262.3c0-10.9-2-26.4-11.3-38.8 7.3 9.6 11.3 22.8 11.3 38.8v202.4l23.5 3.8zM126.3 231.1c2.4-2.7 5.1-5.4 8.1-7.8 6.7-5.4 14.5-9.7 22.6-12.5-11.7 4.1-22.7 11.2-30.7 20.3z" fill="#FFFFFF" /><path d="M678 174.9h-37v64h37c5.9 0 7.8 1.9 9.2 3.7 3.2 4.1 5 11.3 5 19.7V435c-134.9 11.2-241.3 124.4-241.3 262 0 60.3 20.2 117.5 57.4 163.9h-330c-15 0-32.8-12.7-32.8-23.4v-575c0-10.7 17.8-23.4 32.8-23.4h18.5v-64h-18.5c-22.4 0-45.8 8.5-64.1 23.4-20.8 16.9-32.7 40.2-32.7 64v575c0 23.8 11.9 47.2 32.7 64 18.3 14.9 41.7 23.4 64.1 23.4h404.3c39.5 22.9 84.6 35 131.5 35 70.3 0 136.5-27.3 186.2-77 49.8-49.7 77.2-115.7 77.2-186 0-130.7-96-239.4-221.2-259.6v-175c0-51.5-32.2-87.4-78.3-87.4zM714.1 896c-109.8 0-199.2-89.3-199.2-199s89.3-199 199.2-199c109.9 0 199.3 89.3 199.3 199 0 109.8-89.4 199-199.3 199z" fill="#727272" /></svg>