<svg xmlns="http://www.w3.org/2000/svg" xmlns:xlink="http://www.w3.org/1999/xlink" version="1.1" width="256" height="256" viewBox="0 0 256 256" xml:space="preserve">

<defs>
</defs>
<g style="stroke: none; stroke-width: 0; stroke-dasharray: none; stroke-linecap: butt; stroke-linejoin: miter; stroke-miterlimit: 10; fill: none; fill-rule: nonzero; opacity: 1;" transform="translate(1.4065934065934016 1.4065934065934016) scale(2.81 2.81)" >
	<path d="M 25.567 12.244 H 14.991 c -2.193 0 -3.971 1.778 -3.971 3.971 v 68.815 c 0 2.193 1.778 3.971 3.971 3.971 h 50.969 c 2.193 0 3.971 -1.778 3.971 -3.971 V 68.882 V 35.647 V 16.214 c 0 -2.193 -1.778 -3.971 -3.971 -3.971 H 55.383 H 25.567 z" style="stroke: none; stroke-width: 1; stroke-dasharray: none; stroke-linecap: butt; stroke-linejoin: miter; stroke-miterlimit: 10; fill: rgb(247,247,247); fill-rule: nonzero; opacity: 1;" transform=" matrix(1 0 0 1 0 0) " stroke-linecap="round" />
	<path d="M 65.959 90 H 14.991 c -2.741 0 -4.971 -2.229 -4.971 -4.971 V 16.214 c 0 -2.741 2.23 -4.971 4.971 -4.971 h 50.968 c 2.741 0 4.971 2.23 4.971 4.971 v 68.815 C 70.93 87.771 68.7 90 65.959 90 z M 14.991 13.244 c -1.638 0 -2.971 1.333 -2.971 2.971 v 68.815 c 0 1.638 1.333 2.971 2.971 2.971 h 50.968 c 1.638 0 2.971 -1.333 2.971 -2.971 V 16.214 c 0 -1.638 -1.333 -2.971 -2.971 -2.971 H 14.991 z" style="stroke: none; stroke-width: 1; stroke-dasharray: none; stroke-linecap: butt; stroke-linejoin: miter; stroke-miterlimit: 10; fill: rgb(0,0,0); fill-rule: nonzero; opacity: 1;" transform=" matrix(1 0 0 1 0 0) " stroke-linecap="round" />
	<path d="M 38.77 72.884 H 21.475 c -0.552 0 -1 -0.447 -1 -1 s 0.448 -1 1 -1 H 38.77 c 0.552 0 1 0.447 1 1 S 39.322 72.884 38.77 72.884 z" style="stroke: none; stroke-width: 1; stroke-dasharray: none; stroke-linecap: butt; stroke-linejoin: miter; stroke-miterlimit: 10; fill: rgb(0,0,0); fill-rule: nonzero; opacity: 1;" transform=" matrix(1 0 0 1 0 0) " stroke-linecap="round" />
	<path d="M 39.243 33.959 H 21.949 c -0.552 0 -1 -0.448 -1 -1 s 0.448 -1 1 -1 h 17.294 c 0.552 0 1 0.448 1 1 S 39.795 33.959 39.243 33.959 z" style="stroke: none; stroke-width: 1; stroke-dasharray: none; stroke-linecap: butt; stroke-linejoin: miter; stroke-miterlimit: 10; fill: rgb(0,0,0); fill-rule: nonzero; opacity: 1;" transform=" matrix(1 0 0 1 0 0) " stroke-linecap="round" />
	<path d="M 30.933 53.463 h -9.458 c -0.552 0 -1 -0.447 -1 -1 s 0.448 -1 1 -1 h 9.458 c 0.552 0 1 0.447 1 1 S 31.485 53.463 30.933 53.463 z" style="stroke: none; stroke-width: 1; stroke-dasharray: none; stroke-linecap: butt; stroke-linejoin: miter; stroke-miterlimit: 10; fill: rgb(0,0,0); fill-rule: nonzero; opacity: 1;" transform=" matrix(1 0 0 1 0 0) " stroke-linecap="round" />
	<polyline points="49.85,51.77 55.71,59.92 69.27,45.01 " style="stroke: none; stroke-width: 1; stroke-dasharray: none; stroke-linecap: butt; stroke-linejoin: miter; stroke-miterlimit: 10; fill: rgb(0,0,0); fill-rule: nonzero; opacity: 1;" transform="  matrix(1 0 0 1 0 0) "/>
	<circle cx="59.561" cy="52.461" r="19.421" style="stroke: none; stroke-width: 1; stroke-dasharray: none; stroke-linecap: butt; stroke-linejoin: miter; stroke-miterlimit: 10; fill: rgb(79,198,88); fill-rule: nonzero; opacity: 1;" transform="  matrix(1 0 0 1 0 0) "/>
	<path d="M 55.709 60.917 c -0.019 0 -0.038 -0.001 -0.058 -0.002 c -0.301 -0.017 -0.578 -0.169 -0.754 -0.414 l -5.86 -8.15 c -0.323 -0.448 -0.221 -1.073 0.228 -1.396 s 1.073 -0.221 1.396 0.228 l 5.14 7.148 l 12.731 -13.995 c 0.372 -0.408 1.005 -0.438 1.412 -0.067 c 0.408 0.372 0.438 1.004 0.066 1.413 L 56.448 60.59 C 56.259 60.799 55.989 60.917 55.709 60.917 z" style="stroke: none; stroke-width: 1; stroke-dasharray: none; stroke-linecap: butt; stroke-linejoin: miter; stroke-miterlimit: 10; fill: rgb(0,0,0); fill-rule: nonzero; opacity: 1;" transform=" matrix(1 0 0 1 0 0) " stroke-linecap="round" />
	<path d="M 59.56 72.884 c -11.261 0 -20.421 -9.161 -20.421 -20.421 c 0 -11.26 9.161 -20.421 20.421 -20.421 c 11.26 0 20.421 9.161 20.421 20.421 C 79.98 63.723 70.819 72.884 59.56 72.884 z M 59.56 34.042 c -10.157 0 -18.421 8.264 -18.421 18.421 s 8.264 18.421 18.421 18.421 S 77.98 62.62 77.98 52.463 S 69.717 34.042 59.56 34.042 z" style="stroke: none; stroke-width: 1; stroke-dasharray: none; stroke-linecap: butt; stroke-linejoin: miter; stroke-miterlimit: 10; fill: rgb(0,0,0); fill-rule: nonzero; opacity: 1;" transform=" matrix(1 0 0 1 0 0) " stroke-linecap="round" />
	<path d="M 46.983 6.85 C 46.636 3.562 43.855 1 40.475 1 c -3.38 0 -6.161 2.562 -6.508 5.85 h -3.815 c -2.532 0 -4.585 2.053 -4.585 4.585 v 4.748 h 29.816 v -4.748 c 0 -2.532 -2.053 -4.585 -4.585 -4.585 H 46.983 z" style="stroke: none; stroke-width: 1; stroke-dasharray: none; stroke-linecap: butt; stroke-linejoin: miter; stroke-miterlimit: 10; fill: rgb(221,221,221); fill-rule: nonzero; opacity: 1;" transform=" matrix(1 0 0 1 0 0) " stroke-linecap="round" />
	<path d="M 55.383 17.182 H 25.567 c -0.552 0 -1 -0.448 -1 -1 v -4.748 c 0 -3.079 2.505 -5.584 5.584 -5.584 h 2.969 C 33.894 2.458 36.911 0 40.475 0 s 6.582 2.458 7.354 5.85 h 2.97 c 3.079 0 5.584 2.505 5.584 5.584 v 4.748 C 56.383 16.734 55.936 17.182 55.383 17.182 z M 26.567 15.182 h 27.816 v -3.748 c 0 -1.977 -1.607 -3.584 -3.584 -3.584 h -3.815 c -0.512 0 -0.94 -0.386 -0.995 -0.895 C 45.69 4.13 43.32 2 40.475 2 s -5.215 2.13 -5.514 4.956 c -0.054 0.508 -0.483 0.895 -0.995 0.895 h -3.815 c -1.977 0 -3.584 1.608 -3.584 3.584 V 15.182 z" style="stroke: none; stroke-width: 1; stroke-dasharray: none; stroke-linecap: butt; stroke-linejoin: miter; stroke-miterlimit: 10; fill: rgb(0,0,0); fill-rule: nonzero; opacity: 1;" transform=" matrix(1 0 0 1 0 0) " stroke-linecap="round" />
	<path d="M 40.475 9.591 c -0.552 0 -1 -0.448 -1 -1 V 6.465 c 0 -0.552 0.448 -1 1 -1 s 1 0.448 1 1 v 2.126 C 41.475 9.144 41.027 9.591 40.475 9.591 z" style="stroke: none; stroke-width: 1; stroke-dasharray: none; stroke-linecap: butt; stroke-linejoin: miter; stroke-miterlimit: 10; fill: rgb(0,0,0); fill-rule: nonzero; opacity: 1;" transform=" matrix(1 0 0 1 0 0) " stroke-linecap="round" />
</g>
</svg>